<?xml version="1.0" encoding="UTF-8"?>
<svg width="338px" height="113px" viewBox="0 0 338 113" version="1.1" xmlns="http://www.w3.org/2000/svg" xmlns:xlink="http://www.w3.org/1999/xlink">
    <!-- Generator: Sketch 50.2 (55047) - http://www.bohemiancoding.com/sketch -->
    <title>Group 2</title>
    <desc>Created with Sketch.</desc>
    <defs></defs>
    <g id="Post-User-Testing-Design" stroke="none" stroke-width="1" fill="none" fill-rule="evenodd">
        <g id="Homepage-Copy-2" transform="translate(-334.000000, -56.000000)" fill="#FFFFFF" fill-rule="nonzero">
            <g id="Group-3" transform="translate(61.000000, 53.000000)">
                <g id="Group-2" transform="translate(273.000000, 3.000000)">
                    <g id="noun_1140222_cc">
                        <g id="Group" transform="translate(50.520368, 0.000000)">
                            <path d="M13.0651317,10.9468487 L13.0651317,0.691386555 C8.72746501,0.691386555 4.38979834,0.691386555 0.249298343,0.691386555 L0.249298343,10.9468487 L13.0651317,10.9468487 Z" id="Shape"></path>
                            <rect id="Rectangle-path" x="0.0521316759" y="97.9283613" width="12.8158333" height="8.54621849"></rect>
                            <rect id="Rectangle-path" x="0.0521316759" y="12.8460084" width="12.8158333" height="83.3731092"></rect>
                        </g>
                        <g id="Group" transform="translate(0.013333, 0.000000)">
                            <rect id="Rectangle-path" x="0.563333333" y="86.3434874" width="20.6555556" height="2.08907563"></rect>
                            <path d="M21.2188889,22.1518908 L21.2188889,0.691386555 C14.2711111,0.691386555 7.51111111,0.691386555 0.563333333,0.691386555 L0.563333333,22.3418067 L21.2188889,22.1518908 Z" id="Shape"></path>
                            <rect id="Rectangle-path" x="0.563333333" y="24.0510504" width="20.6555556" height="2.08907563"></rect>
                            <rect id="Rectangle-path" x="0.563333333" y="28.2292017" width="20.6555556" height="56.2151261"></rect>
                            <rect id="Rectangle-path" x="0.563333333" y="90.3317227" width="20.6555556" height="16.1428571"></rect>
                        </g>
                        <g id="Group" transform="translate(111.444739, 11.276261)">
                            <polygon id="Shape" points="3.48859438 16.6659726 4.80303882 21.2295415 20.7641499 16.6659726 19.2619277 12.1024036"></polygon>
                            <polygon id="Shape" points="22.8297055 23.7014747 21.3274833 18.5674596 5.36637216 23.1310286 7.05637216 28.2650437"></polygon>
                            <polygon id="Shape" points="40.2930388 79.6051944 23.3930388 25.4128131 7.61970549 30.1665307 24.5197055 84.3589121"></polygon>
                            <path d="M18.6985944,10.2009165 L15.6941499,0.313183803 C7.80748327,1.45407604 2.73748327,3.35556311 0.108594378,5.63734759 L2.92526104,14.7644855 L18.6985944,10.2009165 Z" id="Shape"></path>
                            <polygon id="Shape" points="25.0830388 86.0702505 27.8997055 95.1973884 43.485261 89.8732246 40.8563722 81.5066815"></polygon>
                        </g>
                        <g id="Group" transform="translate(90.146667, 12.513655)">
                            <rect id="Rectangle-path" x="0.5408" y="15.9130588" width="15.6832" height="67.8199412"></rect>
                            <path d="M16.224,14.0186471 L16.224,0.189441176 C12.6186667,0.189441176 8.29226667,0.189441176 0.5408,0.189441176 L0.5408,14.0186471 L16.224,14.0186471 Z" id="Shape"></path>
                            <rect id="Rectangle-path" x="0.5408" y="85.4379706" width="15.6832" height="8.52485294"></rect>
                        </g>
                        <g id="Group" transform="translate(24.800000, 22.552521)">
                            <rect id="Rectangle-path" x="0.751111111" y="67.7322502" width="20.6555556" height="16.1876984"></rect>
                            <path d="M21.4066667,65.8278151 L21.4066667,0.315247432 C14.4588889,0.315247432 7.69888889,0.315247432 0.751111111,0.315247432 L0.751111111,65.8278151 C0.751111111,65.8278151 21.4066667,65.8278151 21.4066667,65.8278151 Z M11.0788889,46.9739076 C13.7077778,46.9739076 15.7733333,50.4018908 15.7733333,54.7820915 C15.7733333,59.1622923 13.7077778,62.5902754 11.0788889,62.5902754 C8.45,62.5902754 6.38444444,59.1622923 6.38444444,54.7820915 C6.38444444,50.5923343 8.45,46.9739076 11.0788889,46.9739076 Z" id="Shape"></path>
                        </g>
                        <g id="Group" transform="translate(65.360000, 0.000000)">
                            <path d="M21.0311111,84.4443277 L21.0311111,0.691386555 C14.0833333,0.691386555 7.32333333,0.691386555 0.375555556,0.691386555 L0.375555556,84.4443277 L21.0311111,84.4443277 Z M10.7033333,27.2796218 C13.1444444,27.2796218 15.21,39.4342437 15.21,54.2476891 C15.21,69.0611345 13.1444444,81.4056723 10.7033333,81.4056723 C8.26222222,81.4056723 6.19666667,69.2510504 6.19666667,54.2476891 C6.19666667,39.2443277 8.07444444,27.2796218 10.7033333,27.2796218 Z" id="Shape"></path>
                            <rect id="Rectangle-path" x="0.375555556" y="90.3317227" width="20.6555556" height="16.1428571"></rect>
                            <rect id="Rectangle-path" x="0.375555556" y="86.3434874" width="20.6555556" height="2.08907563"></rect>
                        </g>
                        <path d="M169,111.744748 L0,111.744748" id="Shape" stroke="#FFFFFF" stroke-width="2"></path>
                    </g>
                    <g id="noun_1140222_cc-copy" transform="translate(169.000000, 0.000000)">
                        <g id="Group" transform="translate(59.520368, 0.000000)">
                            <path d="M13.0651317,10.9468487 L13.0651317,0.691386555 C8.72746501,0.691386555 4.38979834,0.691386555 0.249298343,0.691386555 L0.249298343,10.9468487 L13.0651317,10.9468487 Z" id="Shape"></path>
                            <rect id="Rectangle-path" x="0.0521316759" y="97.9283613" width="12.8158333" height="8.54621849"></rect>
                            <rect id="Rectangle-path" x="0.0521316759" y="12.8460084" width="12.8158333" height="83.3731092"></rect>
                        </g>
                        <g id="Group" transform="translate(9.013333, 0.000000)">
                            <rect id="Rectangle-path" x="0.563333333" y="86.3434874" width="20.6555556" height="2.08907563"></rect>
                            <path d="M21.2188889,22.1518908 L21.2188889,0.691386555 C14.2711111,0.691386555 7.51111111,0.691386555 0.563333333,0.691386555 L0.563333333,22.3418067 L21.2188889,22.1518908 Z" id="Shape"></path>
                            <rect id="Rectangle-path" x="0.563333333" y="24.0510504" width="20.6555556" height="2.08907563"></rect>
                            <rect id="Rectangle-path" x="0.563333333" y="28.2292017" width="20.6555556" height="56.2151261"></rect>
                            <rect id="Rectangle-path" x="0.563333333" y="90.3317227" width="20.6555556" height="16.1428571"></rect>
                        </g>
                        <g id="Group" transform="translate(120.444739, 11.276261)">
                            <polygon id="Shape" points="3.48859438 16.6659726 4.80303882 21.2295415 20.7641499 16.6659726 19.2619277 12.1024036"></polygon>
                            <polygon id="Shape" points="22.8297055 23.7014747 21.3274833 18.5674596 5.36637216 23.1310286 7.05637216 28.2650437"></polygon>
                            <polygon id="Shape" points="40.2930388 79.6051944 23.3930388 25.4128131 7.61970549 30.1665307 24.5197055 84.3589121"></polygon>
                            <path d="M18.6985944,10.2009165 L15.6941499,0.313183803 C7.80748327,1.45407604 2.73748327,3.35556311 0.108594378,5.63734759 L2.92526104,14.7644855 L18.6985944,10.2009165 Z" id="Shape"></path>
                            <polygon id="Shape" points="25.0830388 86.0702505 27.8997055 95.1973884 43.485261 89.8732246 40.8563722 81.5066815"></polygon>
                        </g>
                        <g id="Group" transform="translate(99.146667, 12.513655)">
                            <rect id="Rectangle-path" x="0.5408" y="15.9130588" width="15.6832" height="67.8199412"></rect>
                            <path d="M16.224,14.0186471 L16.224,0.189441176 C12.6186667,0.189441176 8.29226667,0.189441176 0.5408,0.189441176 L0.5408,14.0186471 L16.224,14.0186471 Z" id="Shape"></path>
                            <rect id="Rectangle-path" x="0.5408" y="85.4379706" width="15.6832" height="8.52485294"></rect>
                        </g>
                        <g id="Group" transform="translate(33.800000, 22.552521)">
                            <rect id="Rectangle-path" x="0.751111111" y="67.7322502" width="20.6555556" height="16.1876984"></rect>
                            <path d="M21.4066667,65.8278151 L21.4066667,0.315247432 C14.4588889,0.315247432 7.69888889,0.315247432 0.751111111,0.315247432 L0.751111111,65.8278151 C0.751111111,65.8278151 21.4066667,65.8278151 21.4066667,65.8278151 Z M11.0788889,46.9739076 C13.7077778,46.9739076 15.7733333,50.4018908 15.7733333,54.7820915 C15.7733333,59.1622923 13.7077778,62.5902754 11.0788889,62.5902754 C8.45,62.5902754 6.38444444,59.1622923 6.38444444,54.7820915 C6.38444444,50.5923343 8.45,46.9739076 11.0788889,46.9739076 Z" id="Shape"></path>
                        </g>
                        <g id="Group" transform="translate(74.360000, 0.000000)">
                            <path d="M21.0311111,84.4443277 L21.0311111,0.691386555 C14.0833333,0.691386555 7.32333333,0.691386555 0.375555556,0.691386555 L0.375555556,84.4443277 L21.0311111,84.4443277 Z M10.7033333,27.2796218 C13.1444444,27.2796218 15.21,39.4342437 15.21,54.2476891 C15.21,69.0611345 13.1444444,81.4056723 10.7033333,81.4056723 C8.26222222,81.4056723 6.19666667,69.2510504 6.19666667,54.2476891 C6.19666667,39.2443277 8.07444444,27.2796218 10.7033333,27.2796218 Z" id="Shape"></path>
                            <rect id="Rectangle-path" x="0.375555556" y="90.3317227" width="20.6555556" height="16.1428571"></rect>
                            <rect id="Rectangle-path" x="0.375555556" y="86.3434874" width="20.6555556" height="2.08907563"></rect>
                        </g>
                        <path d="M169,111.744748 L0,111.744748" id="Shape" stroke="#FFFFFF" stroke-width="2"></path>
                    </g>
                </g>
            </g>
        </g>
    </g>
</svg>